HIERARCHY
ROOT Hips
{
    OFFSET 0.000000 0.000000 0.000000
    CHANNELS 6 Xposition Yposition Zposition Zrotation Xrotation Yrotation
    JOINT Spine
    {
        OFFSET -0.000000 14.517291 0.000000
        CHANNELS 3 Zrotation Xrotation Yrotation
        JOINT Spine1
        {
            OFFSET -0.000000 37.558300 0.000000
            CHANNELS 3 Zrotation Xrotation Yrotation
            JOINT Neck
            {
                OFFSET -0.000000 37.404057 3.400369
                CHANNELS 3 Zrotation Xrotation Yrotation
                JOINT Head
                {
                    OFFSET -0.000000 24.785618 -3.540803
                    CHANNELS 3 Zrotation Xrotation Yrotation
                    End Site
                    {
                        OFFSET -0.000000 35.408028 0.000000
                    }
                }
            }
            JOINT LeftShoulder
            {
                OFFSET 6.992933 33.973492 -0.192664
                CHANNELS 3 Zrotation Xrotation Yrotation
                JOINT LeftArm
                {
                    OFFSET 21.527611 0.000000 0.000000
                    CHANNELS 3 Zrotation Xrotation Yrotation
                    JOINT LeftForeArm
                    {
                        OFFSET 56.353916 0.000000 0.000000
                        CHANNELS 3 Zrotation Xrotation Yrotation
                        JOINT LeftHand
                        {
                            OFFSET 47.774071 0.000000 0.000000
                            CHANNELS 3 Zrotation Xrotation Yrotation
                            End Site
                            {
                                OFFSET 26.556021 0.000000 0.000000
                            }
                        }
                    }
                }
            }
            JOINT RightShoulder
            {
                OFFSET -7.065357 33.973492 -0.192664
                CHANNELS 3 Zrotation Xrotation Yrotation
                JOINT RightArm
                {
                    OFFSET -21.527611 0.000000 0.000000
                    CHANNELS 3 Zrotation Xrotation Yrotation
                    JOINT RightForeArm
                    {
                        OFFSET -56.353916 0.000000 0.000000
                        CHANNELS 3 Zrotation Xrotation Yrotation
                        JOINT RightHand
                        {
                            OFFSET -47.774071 0.000000 0.000000
                            CHANNELS 3 Zrotation Xrotation Yrotation
                            End Site
                            {
                                OFFSET -26.556021 0.000000 0.000000
                            }
                        }
                    }
                }
            }
        }
    }
    JOINT LeftUpLeg
    {
        OFFSET 17.704014 0.000000 0.000000
        CHANNELS 3 Zrotation Xrotation Yrotation
        JOINT LeftLeg
        {
            OFFSET -0.000000 -81.181816 0.000000
            CHANNELS 3 Zrotation Xrotation Yrotation
            JOINT LeftFoot
            {
                OFFSET -0.000000 -62.821102 0.000000
                CHANNELS 3 Zrotation Xrotation Yrotation
                JOINT LeftToeBase
                {
                    OFFSET -0.000000 -11.507608 26.556021
                    CHANNELS 3 Zrotation Xrotation Yrotation
                    End Site
                    {
                        OFFSET -0.000000 0.000000 7.081605
                    }
                }
            }
        }
    }
    JOINT RightUpLeg
    {
        OFFSET -17.704014 0.000000 0.000000
        CHANNELS 3 Zrotation Xrotation Yrotation
        JOINT RightLeg
        {
            OFFSET -0.000000 -81.181816 0.000000
            CHANNELS 3 Zrotation Xrotation Yrotation
            JOINT RightFoot
            {
                OFFSET -0.000000 -62.821102 0.000000
                CHANNELS 3 Zrotation Xrotation Yrotation
                JOINT RightToeBase
                {
                    OFFSET -0.000000 -11.507608 26.556021
                    CHANNELS 3 Zrotation Xrotation Yrotation
                    End Site
                    {
                        OFFSET -0.000000 0.000000 7.081605
                    }
                }
            }
        }
    }
}
MOTION
Frames:    5
Frame Time:    0.008333
-29.734203    183.111542    -25.443203    -20.603773    -8.832216    46.017567    3.731086    6.905326    -2.438952    6.701657    -1.511264    -0.683948    36.654068    -12.709666    6.890666    -19.975487    -0.612875    -5.676726    23.942657    0.630348    -17.058491    -31.098328    -0.165109    -23.247957    -17.918205    -7.688858    -119.485191    1.886084    -36.834991    -12.335145    0.976811    -6.652207    -6.710818    11.158573    -5.023823    30.361233    -6.592921    0.198668    69.138794    -12.025513    1.189941    32.847794    25.517651    -18.483078    10.813560    -3.655765    23.082914    -14.801555    -14.456635    5.722963    36.249821    0.000000    0.000000    0.000000    -99.322502    -44.120899    -59.768990    7.183146    16.872410    -6.120574    13.535114    18.346478    -25.743212    0.000000    0.000000    0.000000    
-29.813852    183.390427    -25.871367    -20.628883    -8.285028    45.984383    3.994984    6.802315    -2.270794    6.280856    -1.228256    -0.646056    36.710510    -13.319318    7.213287    -20.089407    -0.298862    -5.521279    23.454529    0.988714    -16.596891    -31.683407    -2.809560    -23.649879    -19.282276    -3.848047    -118.535530    2.964078    -35.368111    -12.565810    0.863942    -6.624838    -6.982486    11.255840    -5.234294    30.695433    -6.694315    -0.135766    69.293793    -11.982403    0.969392    32.694511    24.617043    -19.022928    11.215088    -3.225060    22.310453    -17.040653    -16.942175    5.151063    34.704918    0.000000    0.000000    0.000000    -99.909561    -44.040588    -60.485519    7.150056    16.675039    -6.424642    13.494922    18.618923    -26.029715    0.000000    0.000000    0.000000    
-29.847012    183.493988    -26.249323    -20.606396    -7.795125    45.991077    4.223845    6.660635    -2.108255    5.920366    -0.865894    -0.612409    36.794594    -13.769712    7.459788    -20.318579    -0.174265    -5.450677    22.978275    1.397239    -16.153364    -32.203087    -5.252660    -24.235376    -20.475975    -0.463093    -117.282944    3.361988    -33.725277    -13.170472    0.735776    -6.620639    -7.210986    11.304297    -5.348754    30.951569    -6.917217    -0.580782    69.346474    -11.780444    0.755201    32.593548    23.630432    -19.535542    11.263697    -2.866479    21.684887    -19.275311    -18.817734    4.562690    33.952553    0.000000    0.000000    0.000000    -100.520569    -43.886280    -61.360779    7.093669    16.576294    -6.589227    13.490288    18.790020    -26.256962    0.000000    0.000000    0.000000    
-29.833435    183.438004    -26.596510    -20.522964    -7.420923    46.024075    4.502324    6.553825    -1.988448    5.515127    -0.560922    -0.586975    36.974537    -13.726424    7.597973    -20.692993    -0.434583    -5.448397    22.589474    1.959332    -15.943748    -32.713783    -7.664638    -24.793312    -21.865692    2.819507    -115.979050    4.547063    -32.432945    -13.448683    0.645973    -6.490169    -7.215835    11.325350    -5.530991    31.040062    -7.182958    -0.988291    69.276840    -11.589031    0.606539    32.376198    22.528828    -20.001701    10.869390    -2.651291    21.314505    -20.660227    -19.678852    4.106402    33.956612    0.000000    0.000000    0.000000    -101.024048    -43.680180    -62.186432    7.031793    16.496578    -6.736806    13.422295    18.916943    -26.317064    0.000000    0.000000    0.000000    
-29.815668    183.216705    -26.926268    -20.431778    -7.136051    45.994484    4.789363    6.476820    -1.812134    5.168902    -0.170705    -0.543702    37.119835    -13.822087    7.784049    -21.029509    -0.586326    -5.408475    22.298792    2.439879    -15.733562    -33.397446    -10.121517    -25.410023    -23.422653    6.190315    -114.499451    5.892146    -31.140036    -13.690999    0.532361    -6.504792    -7.231472    11.300304    -5.623936    31.113771    -7.522564    -1.418724    69.088669    -11.422434    0.439959    32.400772    21.406893    -20.431850    10.335864    -2.362526    21.248014    -21.490629    -19.513828    3.743341    33.836876    0.000000    0.000000    0.000000    -101.507751    -43.548870    -63.028164    6.951483    16.481115    -6.849150    13.199930    19.140362    -26.202822    0.000000    0.000000    0.000000    
